<svg width="800" height="840" viewBox="0 0 800 840" fill="none" xmlns="http://www.w3.org/2000/svg">
<path d="M799.5 441.92C799.5 661.428 620.64 839.38 400 839.38C179.36 839.38 0.5 661.428 0.5 441.92C0.5 222.411 179.36 44.4599 400 44.4599C620.64 44.4599 799.5 222.411 799.5 441.92Z" stroke="white"/>
<path d="M760.08 441.917C760.08 639.702 598.87 800.044 400.001 800.044C201.132 800.044 39.9214 639.702 39.9214 441.917C39.9214 244.131 201.132 83.7901 400.001 83.7901C598.87 83.7901 760.08 244.131 760.08 441.917Z" stroke="white"/>
<path d="M720.663 441.921C720.663 617.982 577.102 760.713 400.003 760.713C222.905 760.713 79.3438 617.982 79.3438 441.921C79.3438 265.859 222.905 123.128 400.003 123.128C577.102 123.128 720.663 265.859 720.663 441.921Z" stroke="white"/>
<path d="M683.561 441.925C683.561 597.541 556.611 723.699 400.003 723.699C243.395 723.699 116.445 597.541 116.445 441.925C116.445 286.309 243.395 160.152 400.003 160.152C556.611 160.152 683.561 286.309 683.561 441.925Z" stroke="white"/>
<path d="M648.778 441.927C648.778 578.376 537.401 688.995 400.003 688.995C262.604 688.995 151.227 578.376 151.227 441.927C151.227 305.479 262.604 194.859 400.003 194.859C537.401 194.859 648.778 305.479 648.778 441.927Z" stroke="white"/>
<path d="M609.359 441.916C609.359 556.642 515.631 649.651 400.004 649.651C284.377 649.651 190.649 556.642 190.649 441.916C190.649 327.191 284.377 234.182 400.004 234.182C515.631 234.182 609.359 327.191 609.359 441.916Z" stroke="white"/>
<path d="M572.258 441.92C572.258 536.199 495.141 612.635 400.004 612.635C304.867 612.635 227.75 536.199 227.75 441.92C227.75 347.641 304.867 271.205 400.004 271.205C495.141 271.205 572.258 347.641 572.258 441.92Z" stroke="white"/>
<path d="M532.839 441.925C532.839 514.48 473.373 573.307 400.006 573.307C326.639 573.307 267.172 514.48 267.172 441.925C267.172 369.37 326.639 310.543 400.006 310.543C473.373 310.543 532.839 369.37 532.839 441.925Z" stroke="white"/>
<ellipse cx="531.018" cy="421.088" rx="13.913" ry="13.8823" fill="#DEF4FC"/>
<mask id="mask0_2_1398" style="mask-type:luminance" maskUnits="userSpaceOnUse" x="517" y="407" width="28" height="28">
<ellipse cx="531.018" cy="421.088" rx="13.913" ry="13.8823" fill="white"/>
</mask>
<g mask="url(#mask0_2_1398)">
<path fill-rule="evenodd" clip-rule="evenodd" d="M541.766 409.613C541.766 408.979 541.25 408.464 540.614 408.464H535.049C534.413 408.464 533.898 408.979 533.898 409.613C533.898 410.248 534.413 410.762 535.049 410.762H540.614C541.25 410.762 541.766 410.248 541.766 409.613ZM524.1 419.942C524.736 419.942 525.251 420.456 525.251 421.091C525.251 421.725 524.736 422.239 524.1 422.239H523.812C523.176 422.239 522.66 422.754 522.66 423.388C522.66 424.023 523.176 424.537 523.812 424.537H535.71C536.346 424.537 536.861 424.023 536.861 423.388C536.861 422.754 536.346 422.239 535.71 422.239H530.72L530.72 422.238C530.107 422.213 529.617 421.709 529.617 421.091C529.617 420.472 530.107 419.968 530.72 419.943L530.72 419.942H530.912C531.548 419.942 532.064 419.427 532.064 418.793C532.064 418.158 531.548 417.644 530.912 417.644H526.595L526.595 417.643C525.981 417.618 525.491 417.113 525.491 416.495C525.491 415.877 525.981 415.372 526.595 415.347L526.595 415.346H528.514C529.149 415.346 529.665 414.832 529.665 414.197C529.665 413.563 529.149 413.048 528.514 413.048H521.509C520.873 413.048 520.358 413.563 520.358 414.197C520.358 414.832 520.873 415.346 521.509 415.346H521.989C522.625 415.346 523.14 415.86 523.14 416.495C523.14 417.13 522.625 417.644 521.989 417.644H517.287C516.651 417.644 516.136 418.158 516.136 418.793C516.136 419.427 516.651 419.942 517.287 419.942H524.1ZM529.578 426.846C530.214 426.846 530.73 427.36 530.73 427.995C530.73 428.629 530.214 429.144 529.578 429.144C528.942 429.144 528.427 428.629 528.427 427.995C528.427 427.36 528.942 426.846 529.578 426.846ZM541.288 427.995C541.288 427.36 540.773 426.846 540.137 426.846H534.188C533.552 426.846 533.036 427.36 533.036 427.995C533.036 428.629 533.552 429.144 534.188 429.144H540.137C540.773 429.144 541.288 428.629 541.288 427.995ZM533.034 432.578C533.034 431.944 532.518 431.43 531.882 431.43H529.963C529.327 431.43 528.812 431.944 528.812 432.578C528.812 433.213 529.327 433.727 529.963 433.727H531.882C532.518 433.727 533.034 433.213 533.034 432.578ZM540.609 422.246C541.245 422.246 541.76 422.761 541.76 423.395C541.76 424.03 541.245 424.544 540.609 424.544C539.973 424.544 539.458 424.03 539.458 423.395C539.458 422.761 539.973 422.246 540.609 422.246ZM520.358 423.395C520.358 422.761 519.842 422.246 519.206 422.246H517.287C516.651 422.246 516.136 422.761 516.136 423.395C516.136 424.03 516.651 424.544 517.287 424.544H519.206C519.842 424.544 520.358 424.03 520.358 423.395ZM538.304 413.048C538.94 413.048 539.455 413.563 539.455 414.197C539.455 414.832 538.94 415.346 538.304 415.346H536.385C535.749 415.346 535.233 414.832 535.233 414.197C535.233 413.563 535.749 413.048 536.385 413.048H538.304Z" fill="#B1D5E2"/>
</g>
<g filter="url(#filter0_f_2_1398)">
<ellipse cx="402.115" cy="440.759" rx="86.568" ry="86.3768" fill="#F15401"/>
<mask id="mask1_2_1398" style="mask-type:luminance" maskUnits="userSpaceOnUse" x="315" y="354" width="174" height="174">
<ellipse cx="402.115" cy="440.759" rx="86.568" ry="86.3768" fill="white"/>
</mask>
<g mask="url(#mask1_2_1398)">
<path fill-rule="evenodd" clip-rule="evenodd" d="M468.975 369.279C468.975 365.331 465.768 362.131 461.811 362.131H427.184C423.227 362.131 420.019 365.331 420.019 369.279C420.019 373.227 423.227 376.428 427.184 376.428H461.811C465.768 376.428 468.975 373.227 468.975 369.279ZM359.137 433.61C363.093 433.61 366.301 436.81 366.301 440.758C366.301 444.706 363.093 447.907 359.137 447.907H357.346C353.389 447.907 350.181 451.107 350.181 455.055C350.181 459.003 353.389 462.204 357.346 462.204H431.376C435.333 462.204 438.541 459.003 438.541 455.055C438.541 451.107 435.333 447.907 431.376 447.907H400.331L400.331 447.901C396.513 447.744 393.466 444.606 393.466 440.758C393.466 436.91 396.513 433.773 400.331 433.616L400.331 433.61H401.525C405.482 433.61 408.689 430.409 408.689 426.461C408.689 422.513 405.482 419.313 401.525 419.313H374.659L374.66 419.307C370.841 419.151 367.794 416.013 367.794 412.165C367.794 408.316 370.841 405.178 374.66 405.022L374.659 405.016H386.6C390.556 405.016 393.764 401.816 393.764 397.868C393.764 393.92 390.556 390.719 386.6 390.719H343.017C339.06 390.719 335.853 393.92 335.853 397.868C335.853 401.816 339.06 405.016 343.017 405.016H346.002C349.959 405.016 353.167 408.217 353.167 412.165C353.167 416.113 349.959 419.313 346.002 419.313H316.748C312.792 419.313 309.584 422.513 309.584 426.461C309.584 430.409 312.792 433.61 316.748 433.61H359.137ZM393.153 476.509C397.11 476.509 400.317 479.71 400.317 483.658C400.317 487.606 397.11 490.806 393.153 490.806C389.196 490.806 385.989 487.606 385.989 483.658C385.989 479.71 389.196 476.509 393.153 476.509ZM466.001 483.658C466.001 479.71 462.794 476.509 458.837 476.509H421.822C417.865 476.509 414.657 479.71 414.657 483.658C414.657 487.606 417.865 490.806 421.822 490.806H458.837C462.794 490.806 466.001 487.606 466.001 483.658ZM414.645 512.246C414.645 508.298 411.438 505.098 407.481 505.098H395.54C391.584 505.098 388.376 508.298 388.376 512.246C388.376 516.194 391.584 519.395 395.54 519.395H407.481C411.438 519.395 414.645 516.194 414.645 512.246ZM461.818 447.917C465.774 447.917 468.982 451.117 468.982 455.065C468.982 459.013 465.774 462.214 461.818 462.214C457.861 462.214 454.653 459.013 454.653 455.065C454.653 451.117 457.861 447.917 461.818 447.917ZM335.853 455.065C335.853 451.117 332.645 447.917 328.689 447.917H316.748C312.792 447.917 309.584 451.117 309.584 455.065C309.584 459.013 312.792 462.214 316.748 462.214H328.689C332.645 462.214 335.853 459.013 335.853 455.065ZM447.493 390.719C451.45 390.719 454.657 393.92 454.657 397.868C454.657 401.816 451.45 405.016 447.493 405.016H435.552C431.596 405.016 428.388 401.816 428.388 397.868C428.388 393.92 431.596 390.719 435.552 390.719H447.493Z" fill="#FFCC00"/>
</g>
<rect opacity="0.0775757" x="402.708" y="354.382" width="86.568" height="172.754" fill="black"/>
</g>
<ellipse cx="402.133" cy="440.763" rx="81.9443" ry="81.7632" fill="#F15401"/>
<mask id="mask2_2_1398" style="mask-type:luminance" maskUnits="userSpaceOnUse" x="320" y="358" width="165" height="165">
<ellipse cx="402.133" cy="440.763" rx="81.9443" ry="81.7632" fill="white"/>
</mask>
<g mask="url(#mask2_2_1398)">
<path fill-rule="evenodd" clip-rule="evenodd" d="M387.424 324.802C385.25 321.758 381.371 320.796 378.76 322.652L355.903 338.9C353.291 340.756 352.935 344.729 355.108 347.773C357.282 350.816 361.161 351.779 363.772 349.922L386.629 333.674C389.241 331.818 389.597 327.845 387.424 324.802ZM350.327 425.941C352.939 424.084 356.818 425.047 358.991 428.09C361.164 431.134 360.808 435.106 358.197 436.963L357.014 437.803C354.403 439.66 354.047 443.632 356.22 446.676C358.393 449.72 362.272 450.682 364.884 448.826L413.751 414.089C416.363 412.233 416.718 408.26 414.545 405.217C412.372 402.173 408.493 401.211 405.881 403.067L385.389 417.634L385.385 417.629C382.779 419.3 379.04 418.311 376.922 415.344C374.804 412.378 375.088 408.529 377.522 406.617L377.519 406.612L378.307 406.051C380.919 404.195 381.274 400.222 379.101 397.179C376.928 394.135 373.049 393.173 370.437 395.029L352.703 407.635L352.7 407.63C350.094 409.302 346.355 408.312 344.237 405.346C342.118 402.379 342.403 398.529 344.837 396.617L344.834 396.613L352.715 391.01C355.327 389.154 355.683 385.181 353.51 382.138C351.336 379.094 347.457 378.132 344.846 379.988L316.077 400.438C313.466 402.294 313.11 406.267 315.283 409.31C317.456 412.354 321.335 413.316 323.947 411.46L325.918 410.059C328.529 408.203 332.408 409.165 334.581 412.209C336.755 415.252 336.399 419.225 333.787 421.081L314.477 434.808C311.865 436.664 311.51 440.637 313.683 443.681C315.856 446.724 319.735 447.687 322.347 445.83L350.327 425.941ZM448.411 414.379C446.238 411.335 442.359 410.373 439.747 412.229L415.314 429.597C412.702 431.454 412.346 435.426 414.519 438.47C416.693 441.514 420.571 442.476 423.183 440.619L447.617 423.251C450.229 421.395 450.584 417.422 448.411 414.379ZM430.257 460.511C428.084 457.468 424.205 456.505 421.593 458.362L413.711 463.964C411.1 465.821 410.744 469.793 412.917 472.837C415.09 475.881 418.969 476.843 421.581 474.987L429.463 469.384C432.075 467.528 432.43 463.555 430.257 460.511ZM396.4 443.048C399.012 441.192 402.891 442.154 405.064 445.198C407.237 448.242 406.882 452.214 404.27 454.071C401.658 455.927 397.779 454.965 395.606 451.921C393.433 448.877 393.788 444.905 396.4 443.048ZM425.973 388.785C428.585 386.929 432.464 387.891 434.637 390.935C436.81 393.978 436.454 397.951 433.843 399.807C431.231 401.664 427.352 400.702 425.179 397.658C423.006 394.614 423.361 390.642 425.973 388.785ZM346.76 453.401C344.587 450.357 340.708 449.395 338.096 451.251L330.214 456.854C327.602 458.711 327.247 462.683 329.42 465.727C331.593 468.77 335.472 469.733 338.084 467.876L345.966 462.274C348.577 460.417 348.933 456.445 346.76 453.401ZM385.035 351.422C387.647 349.565 391.526 350.528 393.699 353.571C395.872 356.615 395.517 360.587 392.905 362.444L385.023 368.047C382.412 369.903 378.533 368.941 376.359 365.897C374.186 362.853 374.542 358.881 377.154 357.024L385.035 351.422Z" fill="#FFCC00"/>
<path fill-rule="evenodd" clip-rule="evenodd" d="M348.603 432.497C345.61 434.744 346.282 440.673 350.103 445.741L383.543 490.088C387.365 495.155 392.888 497.442 395.881 495.195C398.874 492.948 398.203 487.019 394.382 481.952L360.941 437.604C357.12 432.537 351.596 430.25 348.603 432.497ZM385.613 447.819C381.792 442.751 381.12 436.822 384.113 434.575C387.106 432.328 392.63 434.615 396.451 439.682L407.982 454.975C411.803 460.042 412.475 465.971 409.482 468.218C406.489 470.465 400.965 468.178 397.144 463.111L385.613 447.819ZM503.462 536.57C499.641 531.503 498.969 525.573 501.962 523.326C504.955 521.08 510.479 523.366 514.3 528.434L516.03 530.727C519.851 535.795 525.375 538.081 528.367 535.834C531.36 533.588 530.689 527.658 526.868 522.591L455.374 427.779C451.553 422.712 446.029 420.425 443.036 422.672C440.044 424.919 440.715 430.848 444.536 435.916L474.517 475.676L474.513 475.68C478.082 480.658 478.646 486.347 475.729 488.537C472.812 490.726 467.49 488.61 463.684 483.809L463.679 483.812L462.526 482.283C458.705 477.215 453.181 474.929 450.188 477.176C447.196 479.423 447.867 485.352 451.688 490.419L477.633 524.827L477.628 524.83C481.198 529.809 481.762 535.498 478.845 537.688C475.927 539.878 470.605 537.761 466.8 532.959L466.795 532.963L455.264 517.671C451.443 512.604 445.919 510.317 442.926 512.564C439.933 514.811 440.605 520.74 444.426 525.807L486.515 581.624C490.336 586.691 495.86 588.978 498.853 586.731C501.845 584.484 501.174 578.555 497.353 573.487L494.47 569.664C490.649 564.597 489.978 558.668 492.97 556.421C495.963 554.174 501.487 556.461 505.308 561.528L533.56 598.994C537.381 604.061 542.905 606.348 545.897 604.101C548.89 601.854 548.219 595.925 544.398 590.857L503.462 536.57ZM503.112 468.58C499.291 463.512 498.62 457.583 501.613 455.336C504.605 453.089 510.129 455.376 513.95 460.443C517.771 465.511 518.443 471.44 515.45 473.687C512.457 475.934 506.933 473.647 503.112 468.58ZM438.195 371.231C435.202 373.478 435.873 379.407 439.695 384.475L475.441 431.88C479.262 436.948 484.786 439.234 487.779 436.987C490.772 434.741 490.101 428.811 486.279 423.744L450.533 376.338C446.712 371.271 441.188 368.984 438.195 371.231ZM509.452 420.713C506.459 422.96 507.131 428.889 510.952 433.956L522.483 449.249C526.304 454.316 531.828 456.602 534.821 454.356C537.814 452.109 537.142 446.179 533.321 441.112L521.79 425.82C517.969 420.752 512.445 418.466 509.452 420.713ZM415.127 396.92C411.306 391.852 410.635 385.923 413.628 383.676C416.62 381.429 422.144 383.716 425.965 388.783C429.786 393.851 430.458 399.78 427.465 402.027C424.472 404.274 418.948 401.987 415.127 396.92ZM542.204 554.187C539.211 556.434 539.883 562.363 543.704 567.43L555.235 582.722C559.056 587.79 564.58 590.076 567.573 587.83C570.566 585.583 569.894 579.653 566.073 574.586L554.542 559.294C550.721 554.226 545.197 551.94 542.204 554.187Z" fill="#FFCC00"/>
<path fill-rule="evenodd" clip-rule="evenodd" d="M500.488 543.223C503.373 540.84 504.054 536.91 502.009 534.445L484.113 512.875C482.068 510.411 478.071 510.344 475.186 512.728C472.301 515.111 471.62 519.041 473.665 521.505L491.562 543.075C493.607 545.54 497.603 545.606 500.488 543.223ZM473.703 542.778C475.748 545.242 475.067 549.172 472.182 551.555C469.297 553.939 465.301 553.872 463.256 551.408L457.085 543.97C455.04 541.505 455.721 537.575 458.606 535.192C461.491 532.809 465.487 532.875 467.532 535.34L473.703 542.778ZM396.695 513.631C398.74 516.096 398.059 520.026 395.174 522.409C392.289 524.792 388.292 524.726 386.247 522.261L385.322 521.146C383.277 518.681 379.28 518.615 376.395 520.998C373.51 523.381 372.829 527.311 374.874 529.776L413.135 575.89C415.18 578.355 419.177 578.421 422.062 576.038C424.947 573.655 425.628 569.725 423.583 567.26L407.538 547.922L407.542 547.918C405.683 545.445 406.401 541.653 409.213 539.33C412.025 537.007 415.893 537.011 417.981 539.295L417.986 539.292L418.603 540.036C420.648 542.5 424.644 542.566 427.529 540.183C430.414 537.8 431.095 533.87 429.05 531.406L415.165 514.67L415.17 514.667C413.31 512.194 414.028 508.402 416.84 506.079C419.653 503.756 423.521 503.76 425.608 506.044L425.613 506.04L431.784 513.478C433.829 515.943 437.825 516.009 440.71 513.626C443.595 511.243 444.276 507.313 442.231 504.848L419.707 477.7C417.662 475.235 413.665 475.169 410.78 477.552C407.895 479.935 407.214 483.865 409.259 486.33L410.802 488.189C412.847 490.654 412.166 494.584 409.281 496.967C406.396 499.35 402.399 499.284 400.354 496.82L385.235 478.597C383.19 476.132 379.193 476.066 376.308 478.449C373.423 480.832 372.742 484.762 374.787 487.227L396.695 513.631ZM382.942 560.718C384.987 563.183 384.306 567.113 381.421 569.496C378.536 571.879 374.539 571.813 372.494 569.348C370.449 566.883 371.131 562.953 374.016 560.57C376.901 558.187 380.897 558.253 382.942 560.718ZM415.359 610.4C418.244 608.017 418.925 604.087 416.88 601.623L397.749 578.565C395.704 576.101 391.708 576.035 388.823 578.418C385.938 580.801 385.257 584.731 387.302 587.195L406.432 610.253C408.477 612.717 412.474 612.784 415.359 610.4ZM367.933 595.678C370.818 593.295 371.499 589.365 369.454 586.901L363.283 579.463C361.238 576.998 357.241 576.932 354.356 579.315C351.471 581.698 350.79 585.628 352.835 588.093L359.006 595.531C361.051 597.995 365.048 598.061 367.933 595.678ZM439.32 586.22C441.365 588.685 440.684 592.615 437.799 594.998C434.914 597.381 430.918 597.315 428.873 594.85C426.828 592.385 427.509 588.455 430.394 586.072C433.279 583.689 437.275 583.755 439.32 586.22ZM368.988 512.07C371.874 509.686 372.555 505.756 370.51 503.292L364.338 495.854C362.293 493.389 358.297 493.323 355.412 495.706C352.527 498.089 351.846 502.019 353.891 504.484L360.062 511.922C362.107 514.387 366.103 514.453 368.988 512.07Z" fill="#FFCC00"/>
</g>
<ellipse cx="398.842" cy="275.334" rx="32.4637" ry="32.3921" fill="#F7CC7F"/>
<mask id="mask3_2_1398" style="mask-type:luminance" maskUnits="userSpaceOnUse" x="366" y="242" width="66" height="66">
<ellipse cx="398.842" cy="275.334" rx="32.4637" ry="32.3921" fill="white"/>
</mask>
<g mask="url(#mask3_2_1398)">
<path fill-rule="evenodd" clip-rule="evenodd" d="M416.543 248.599C416.543 247.526 415.671 246.656 414.595 246.656H372.879C371.803 246.656 370.931 247.526 370.931 248.599C370.931 249.672 371.803 250.543 372.879 250.543H392.357C393.433 250.543 394.305 251.413 394.305 252.486C394.305 253.56 393.433 254.43 392.357 254.43H391.708C390.632 254.43 389.76 255.3 389.76 256.373C389.76 257.447 390.632 258.317 391.708 258.317H404.044C405.12 258.317 405.992 257.447 405.992 256.373C405.992 255.3 405.12 254.43 404.044 254.43H403.557L403.557 254.428C402.519 254.385 401.691 253.532 401.691 252.486C401.691 251.44 402.519 250.587 403.557 250.544L403.557 250.543H414.595C415.671 250.543 416.543 249.672 416.543 248.599ZM413.454 264.153C413.454 263.08 412.582 262.21 411.507 262.21H401.443C400.367 262.21 399.495 263.08 399.495 264.153C399.495 265.227 400.367 266.097 401.443 266.097H411.507C412.582 266.097 413.454 265.227 413.454 264.153ZM364.838 269.984C365.914 269.984 366.786 270.854 366.786 271.927C366.786 273.001 365.914 273.871 364.838 273.871H357.696C356.62 273.871 355.748 273.001 355.748 271.927C355.748 270.854 356.62 269.984 357.696 269.984H364.838ZM415.387 271.927C415.387 270.854 414.515 269.984 413.439 269.984H375.944C374.868 269.984 373.996 270.854 373.996 271.927C373.996 273.001 374.868 273.871 375.944 273.871H387.306C388.382 273.871 389.254 274.741 389.254 275.814C389.254 276.888 388.382 277.758 387.306 277.758H385.845C384.769 277.758 383.897 278.628 383.897 279.701C383.897 280.775 384.769 281.645 385.845 281.645H408.895C409.97 281.645 410.842 282.515 410.842 283.588C410.842 284.662 409.97 285.532 408.895 285.532H407.921C406.845 285.532 405.973 286.402 405.973 287.475C405.973 288.549 406.845 289.419 407.921 289.419H420.257C421.333 289.419 422.205 288.549 422.205 287.475C422.205 286.402 421.333 285.532 420.257 285.532H420.095L420.094 285.53C419.056 285.488 418.228 284.635 418.228 283.588C418.228 282.542 419.056 281.689 420.094 281.646L420.095 281.645H423.341C424.417 281.645 425.289 280.775 425.289 279.701C425.289 278.628 424.417 277.758 423.341 277.758H410.355V277.756C409.317 277.714 408.489 276.86 408.489 275.814C408.489 274.768 409.317 273.915 410.355 273.872V273.871H413.439C414.515 273.871 415.387 273.001 415.387 271.927ZM418.648 295.257C418.648 294.184 417.776 293.314 416.7 293.314H379.204C378.128 293.314 377.256 294.184 377.256 295.257C377.256 296.331 378.128 297.201 379.204 297.201H385.859C386.935 297.201 387.807 298.071 387.807 299.144C387.807 300.218 386.935 301.088 385.859 301.088H385.21C384.134 301.088 383.262 301.958 383.262 303.032C383.262 304.105 384.134 304.975 385.21 304.975H397.546C398.622 304.975 399.494 304.105 399.494 303.032C399.494 301.958 398.622 301.088 397.546 301.088H397.059L397.059 301.086C396.021 301.044 395.193 300.191 395.193 299.144C395.193 298.098 396.021 297.245 397.059 297.203L397.059 297.201H416.7C417.776 297.201 418.648 296.331 418.648 295.257ZM385.369 285.533C386.444 285.533 387.316 286.403 387.316 287.476C387.316 288.55 386.444 289.42 385.369 289.42H373.032C371.957 289.42 371.085 288.55 371.085 287.476C371.085 286.403 371.957 285.533 373.032 285.533H385.369ZM440.231 279.702C440.231 278.629 439.359 277.759 438.283 277.759H431.628C430.552 277.759 429.68 278.629 429.68 279.702C429.68 280.776 430.552 281.646 431.628 281.646H438.283C439.359 281.646 440.231 280.776 440.231 279.702ZM388.931 262.21C390.007 262.21 390.879 263.08 390.879 264.153C390.879 265.227 390.007 266.097 388.931 266.097H385.685C384.609 266.097 383.737 265.227 383.737 264.153C383.737 263.08 384.609 262.21 385.685 262.21H388.931ZM415.07 254.434C416.146 254.434 417.018 255.304 417.018 256.377C417.018 257.451 416.146 258.321 415.07 258.321H411.823C410.748 258.321 409.876 257.451 409.876 256.377C409.876 255.304 410.748 254.434 411.823 254.434H415.07ZM385.864 256.377C385.864 255.304 384.992 254.434 383.916 254.434H380.67C379.594 254.434 378.722 255.304 378.722 256.377C378.722 257.451 379.594 258.321 380.67 258.321H383.916C384.992 258.321 385.864 257.451 385.864 256.377Z" fill="#FFE6AE"/>
</g>
<mask id="mask4_2_1398" style="mask-type:luminance" maskUnits="userSpaceOnUse" x="366" y="242" width="66" height="66">
<ellipse cx="398.842" cy="275.334" rx="32.4637" ry="32.3921" fill="white"/>
</mask>
<g mask="url(#mask4_2_1398)">
<path fill-rule="evenodd" clip-rule="evenodd" d="M380.496 273.871C381.572 273.871 382.444 274.741 382.444 275.814C382.444 276.888 381.572 277.758 380.496 277.758H379.847C378.771 277.758 377.899 278.628 377.899 279.701C377.899 280.775 378.771 281.645 379.847 281.645H392.183C393.259 281.645 394.131 280.775 394.131 279.701C394.131 278.628 393.259 277.758 392.183 277.758H391.696L391.696 277.756C390.658 277.714 389.83 276.861 389.83 275.814C389.83 274.768 390.658 273.915 391.696 273.873L391.696 273.871H402.734C403.81 273.871 404.682 273.001 404.682 271.927C404.682 270.854 403.81 269.984 402.734 269.984H376.763L376.763 269.982C375.725 269.94 374.896 269.087 374.896 268.04C374.896 266.994 375.725 266.141 376.763 266.098L376.763 266.097H389.424C390.5 266.097 391.372 265.227 391.372 264.153C391.372 263.08 390.5 262.21 389.424 262.21H364.102C363.026 262.21 362.154 263.08 362.154 264.153C362.154 265.227 363.026 266.097 364.102 266.097H368.972C370.047 266.097 370.92 266.967 370.92 268.04C370.92 269.114 370.047 269.984 368.972 269.984H366.699C365.623 269.984 364.751 270.854 364.751 271.927C364.751 273.001 365.623 273.871 366.699 273.871H380.496ZM401.593 287.476C401.593 286.403 400.721 285.533 399.645 285.533H389.581C388.505 285.533 387.633 286.403 387.633 287.476C387.633 288.549 388.505 289.42 389.581 289.42H399.645C400.721 289.42 401.593 288.549 401.593 287.476ZM403.226 277.759C404.302 277.759 405.174 278.629 405.174 279.702C405.174 280.776 404.302 281.646 403.226 281.646H399.98C398.904 281.646 398.032 280.776 398.032 279.702C398.032 278.629 398.904 277.759 399.98 277.759H403.226ZM433.73 279.702C433.73 278.629 432.858 277.759 431.783 277.759H415.388C414.313 277.759 413.441 278.629 413.441 279.702C413.441 280.776 414.313 281.646 415.388 281.646H431.783C432.858 281.646 433.73 280.776 433.73 279.702ZM372.057 277.759C373.133 277.759 374.005 278.629 374.005 279.702C374.005 280.776 373.133 281.646 372.057 281.646H368.811C367.735 281.646 366.863 280.776 366.863 279.702C366.863 278.629 367.735 277.759 368.811 277.759H372.057ZM424.808 271.927C424.808 270.854 423.936 269.984 422.86 269.984H419.613C418.538 269.984 417.666 270.854 417.666 271.927C417.666 273.001 418.538 273.871 419.613 273.871H422.86C423.936 273.871 424.808 273.001 424.808 271.927Z" fill="#E29F58"/>
</g>
<ellipse cx="199.412" cy="460.432" rx="34.7826" ry="34.7058" fill="#545BFE"/>
<mask id="mask5_2_1398" style="mask-type:luminance" maskUnits="userSpaceOnUse" x="164" y="425" width="71" height="71">
<ellipse cx="199.412" cy="460.432" rx="34.7826" ry="34.7058" fill="white"/>
</mask>
<g mask="url(#mask5_2_1398)">
<path fill-rule="evenodd" clip-rule="evenodd" d="M193.694 429.891C193.694 428.869 192.864 428.04 191.839 428.04H160.149C159.124 428.04 158.293 428.869 158.293 429.891C158.293 430.913 159.124 431.742 160.149 431.742H167.569C168.593 431.742 169.424 432.571 169.424 433.593C169.424 434.615 168.593 435.444 167.569 435.444H166.641C165.617 435.444 164.786 436.273 164.786 437.295C164.786 438.317 165.617 439.146 166.641 439.146H166.023C167.047 439.146 167.878 439.975 167.878 440.997C167.878 442.019 167.047 442.848 166.023 442.848H164.477C163.453 442.848 162.622 443.677 162.622 444.699C162.622 445.721 163.453 446.55 164.477 446.55H182.873C183.898 446.55 184.728 445.721 184.728 444.699C184.728 443.677 183.898 442.848 182.873 442.848H182.1L182.1 442.846C181.112 442.806 180.322 441.993 180.322 440.997C180.322 440.001 181.112 439.188 182.1 439.148L182.1 439.146H192.767C193.791 439.146 194.622 438.317 194.622 437.295C194.622 436.273 193.791 435.444 192.767 435.444H191.685V435.442C190.696 435.402 189.907 434.59 189.907 433.593C189.907 432.597 190.696 431.784 191.685 431.744V431.742H191.839C192.864 431.742 193.694 430.913 193.694 429.891ZM179.794 450.257C180.818 450.257 181.649 451.086 181.649 452.108C181.649 453.131 180.818 453.959 179.794 453.959C178.769 453.959 177.939 453.131 177.939 452.108C177.939 451.086 178.769 450.257 179.794 450.257ZM174.063 455.8C174.063 454.778 173.232 453.949 172.208 453.949H166.797C165.773 453.949 164.942 454.778 164.942 455.8C164.942 456.822 165.773 457.651 166.797 457.651H172.208C173.232 457.651 174.063 456.822 174.063 455.8ZM187.199 478.02C187.199 479.042 186.368 479.871 185.344 479.871H186.117C185.092 479.871 184.262 480.7 184.262 481.722C184.262 482.744 185.092 483.573 186.117 483.573H190.6C191.624 483.573 192.455 482.744 192.455 481.722C192.455 480.7 191.624 479.871 190.6 479.871H191.218V479.87C190.229 479.829 189.44 479.017 189.44 478.02C189.44 477.024 190.229 476.211 191.218 476.171V476.169H195.392C196.417 476.169 197.247 475.341 197.247 474.318C197.247 473.296 196.417 472.467 195.392 472.467L195.392 472.466C194.403 472.425 193.614 471.613 193.614 470.616C193.614 469.62 194.403 468.807 195.392 468.767L195.392 468.765H196.32C197.344 468.765 198.175 467.937 198.175 466.914C198.175 465.892 197.344 465.063 196.32 465.063H188.435V465.062C187.447 465.021 186.658 464.209 186.658 463.212C186.658 462.216 187.447 461.403 188.435 461.363V461.361H188.126C189.151 461.361 189.981 460.533 189.981 459.51C189.981 458.488 189.151 457.66 188.126 457.66H180.551C179.527 457.66 178.696 458.488 178.696 459.51C178.696 460.533 179.527 461.361 180.551 461.361C181.576 461.361 182.406 462.19 182.406 463.212C182.406 464.235 181.576 465.063 180.551 465.063C179.527 465.063 178.696 465.892 178.696 466.914C178.696 467.937 179.527 468.765 180.551 468.765H182.097C183.122 468.765 183.952 469.594 183.952 470.616C183.952 471.639 183.122 472.467 182.097 472.467H182.406C181.382 472.467 180.551 473.296 180.551 474.318C180.551 475.341 181.382 476.169 182.406 476.169H185.344C186.368 476.169 187.199 476.998 187.199 478.02Z" fill="#4FCDF9"/>
</g>
<mask id="mask6_2_1398" style="mask-type:luminance" maskUnits="userSpaceOnUse" x="164" y="425" width="71" height="71">
<ellipse cx="199.412" cy="460.432" rx="34.7826" ry="34.7058" fill="white"/>
</mask>
<g mask="url(#mask6_2_1398)">
<path fill-rule="evenodd" clip-rule="evenodd" d="M229.865 433.583C229.865 432.561 229.035 431.732 228.01 431.732H224.3C223.276 431.732 222.445 432.561 222.445 433.583C222.445 434.605 223.276 435.434 224.3 435.434H228.01C229.035 435.434 229.865 434.605 229.865 433.583ZM266.661 435.447C267.685 435.447 268.516 436.276 268.516 437.298C268.516 438.32 267.685 439.149 266.661 439.149H265.579L265.579 439.15C264.59 439.191 263.801 440.003 263.801 441C263.801 441.996 264.59 442.809 265.579 442.849L265.579 442.851H268.052C269.077 442.851 269.907 443.68 269.907 444.702C269.907 445.724 269.077 446.553 268.052 446.553H241.153C240.129 446.553 239.298 445.724 239.298 444.702C239.298 443.68 240.129 442.851 241.153 442.851H240.381C241.405 442.851 242.236 442.022 242.236 441C242.236 439.978 241.405 439.149 240.381 439.149H234.042C233.018 439.149 232.187 438.32 232.187 437.298C232.187 436.276 233.018 435.447 234.042 435.447H266.661ZM224.933 476.158C225.957 476.158 226.788 475.329 226.788 474.307C226.788 473.285 225.957 472.456 224.933 472.456C223.908 472.456 223.078 471.627 223.078 470.605C223.078 469.583 223.908 468.754 224.933 468.754H224.469C225.494 468.754 226.324 467.925 226.324 466.903C226.324 465.881 225.494 465.052 224.469 465.052H217.512C216.488 465.052 215.657 464.223 215.657 463.201C215.657 462.179 216.488 461.35 217.512 461.35C218.537 461.35 219.368 460.521 219.368 459.499C219.368 458.477 218.537 457.648 217.512 457.648H212.256C211.232 457.648 210.401 456.819 210.401 455.797C210.401 454.775 211.232 453.946 212.256 453.946H216.276C217.3 453.946 218.131 453.117 218.131 452.095C218.131 451.073 217.3 450.244 216.276 450.244C215.251 450.244 214.421 449.415 214.421 448.393C214.421 447.371 215.251 446.542 216.276 446.542H224.933C225.957 446.542 226.788 447.371 226.788 448.393C226.788 449.415 225.957 450.244 224.933 450.244L224.933 450.246C223.944 450.286 223.155 451.099 223.155 452.095C223.155 453.092 223.944 453.904 224.933 453.945L224.933 453.946H239C240.025 453.946 240.855 454.775 240.855 455.797C240.855 456.819 240.025 457.648 239 457.648H235.909L235.909 457.65C234.92 457.69 234.131 458.503 234.131 459.499C234.131 460.495 234.92 461.308 235.909 461.348L235.909 461.35H237.454C238.479 461.35 239.31 462.179 239.31 463.201C239.31 464.223 238.479 465.052 237.454 465.052H235.136L235.135 465.054C234.147 465.094 233.358 465.907 233.358 466.903C233.358 467.899 234.147 468.712 235.135 468.752L235.136 468.754H234.826C235.851 468.754 236.682 469.583 236.682 470.605C236.682 471.627 235.851 472.456 234.826 472.456H231.735L231.735 472.457C230.746 472.498 229.957 473.31 229.957 474.307C229.957 475.303 230.746 476.116 231.735 476.156L231.735 476.158H231.116C232.141 476.158 232.971 476.987 232.971 478.009C232.971 479.031 232.141 479.86 231.116 479.86H225.551C224.527 479.86 223.696 479.031 223.696 478.009C223.696 476.987 224.527 476.158 225.551 476.158H224.933ZM238.846 472.469C239.871 472.469 240.701 473.298 240.701 474.32C240.701 475.343 239.871 476.171 238.846 476.171C237.821 476.171 236.991 475.343 236.991 474.32C236.991 473.298 237.821 472.469 238.846 472.469ZM237.911 448.393C237.911 447.371 237.081 446.542 236.056 446.542H233.892C232.867 446.542 232.037 447.371 232.037 448.393C232.037 449.415 232.867 450.244 233.892 450.244H236.056C237.081 450.244 237.911 449.415 237.911 448.393ZM221.985 440.992C221.985 439.969 221.154 439.141 220.13 439.141H216.419C215.395 439.141 214.564 439.969 214.564 440.992C214.564 442.014 215.395 442.843 216.419 442.843H220.13C221.154 442.843 221.985 442.014 221.985 440.992ZM226.018 439.141C227.043 439.141 227.873 439.969 227.873 440.992C227.873 442.014 227.043 442.843 226.018 442.843H225.554C224.53 442.843 223.699 442.014 223.699 440.992C223.699 439.969 224.53 439.141 225.554 439.141H226.018Z" fill="#4FCDF9"/>
</g>
<mask id="mask7_2_1398" style="mask-type:luminance" maskUnits="userSpaceOnUse" x="164" y="425" width="71" height="71">
<ellipse cx="199.412" cy="460.432" rx="34.7826" ry="34.7058" fill="white"/>
</mask>
<g mask="url(#mask7_2_1398)">
<path fill-rule="evenodd" clip-rule="evenodd" d="M239.777 422.488C239.777 421.466 238.947 420.637 237.922 420.637H213.806C212.782 420.637 211.951 421.466 211.951 422.488C211.951 423.51 212.782 424.339 213.806 424.339H237.922C238.947 424.339 239.777 423.51 239.777 422.488ZM212.098 433.594C212.098 432.572 211.268 431.743 210.243 431.743H191.692C190.668 431.743 189.837 430.914 189.837 429.892C189.837 428.87 190.668 428.041 191.692 428.041H199.267C200.292 428.041 201.122 427.212 201.122 426.19C201.122 425.168 200.292 424.339 199.267 424.339H196.794C195.769 424.339 194.939 423.511 194.939 422.488C194.939 421.466 195.769 420.637 196.794 420.637H206.378C207.403 420.637 208.234 421.466 208.234 422.488C208.234 423.511 207.403 424.339 206.378 424.339H206.688L206.688 424.341C205.699 424.381 204.91 425.194 204.91 426.19C204.91 427.187 205.699 427.999 206.688 428.04L206.688 428.041H231.422C232.446 428.041 233.277 428.87 233.277 429.892C233.277 430.914 232.446 431.743 231.422 431.743H220.91L220.91 431.745C219.921 431.785 219.132 432.598 219.132 433.594C219.132 434.59 219.921 435.403 220.91 435.443L220.91 435.445H221.374C222.398 435.445 223.229 436.274 223.229 437.296C223.229 438.318 222.398 439.147 221.374 439.147H209.625C208.6 439.147 207.77 438.318 207.77 437.296C207.77 436.274 208.6 435.445 209.625 435.445H210.243C211.268 435.445 212.098 434.616 212.098 433.594ZM228.491 442.849C229.515 442.849 230.346 443.678 230.346 444.7C230.346 445.722 229.515 446.551 228.491 446.551H218.906C217.882 446.551 217.051 445.722 217.051 444.7C217.051 443.678 217.882 442.849 218.906 442.849H228.491ZM233.739 437.298C233.739 436.276 232.908 435.447 231.884 435.447H228.792C227.768 435.447 226.937 436.276 226.937 437.298C226.937 438.32 227.768 439.149 228.792 439.149H231.884C232.908 439.149 233.739 438.32 233.739 437.298ZM202.202 435.447C203.226 435.447 204.057 436.276 204.057 437.298C204.057 438.32 203.226 439.149 202.202 439.149H199.11C198.085 439.149 197.255 438.32 197.255 437.298C197.255 436.276 198.085 435.447 199.11 435.447H202.202Z" fill="white"/>
</g>
<mask id="mask8_2_1398" style="mask-type:luminance" maskUnits="userSpaceOnUse" x="164" y="425" width="71" height="71">
<ellipse cx="199.412" cy="460.432" rx="34.7826" ry="34.7058" fill="white"/>
</mask>
<g mask="url(#mask8_2_1398)">
<path fill-rule="evenodd" clip-rule="evenodd" d="M177.772 479.865C178.796 479.865 179.627 480.694 179.627 481.716C179.627 482.739 178.796 483.567 177.772 483.567H177.154C176.129 483.567 175.299 484.396 175.299 485.418C175.299 486.44 176.129 487.269 177.154 487.269H188.902C189.927 487.269 190.757 486.44 190.757 485.418C190.757 484.396 189.927 483.567 188.902 483.567H188.439L188.438 483.566C187.45 483.525 186.661 482.713 186.661 481.716C186.661 480.72 187.45 479.907 188.438 479.867L188.439 479.865H192.458C193.482 479.865 194.313 479.037 194.313 478.014C194.313 476.992 193.482 476.163 192.458 476.163H190.294L190.294 476.162C189.305 476.121 188.516 475.309 188.516 474.312C188.516 473.316 189.305 472.503 190.294 472.463L190.294 472.461H197.559C198.584 472.461 199.414 471.633 199.414 470.61C199.414 469.588 198.584 468.759 197.559 468.759H179.318C178.293 468.759 177.463 469.588 177.463 470.61C177.463 471.633 178.293 472.461 179.318 472.461H182.873C183.898 472.461 184.728 473.29 184.728 474.312C184.728 475.335 183.898 476.163 182.873 476.163H167.26C166.235 476.163 165.405 476.992 165.405 478.014C165.405 479.037 166.235 479.865 167.26 479.865H177.772ZM204.831 478.013C204.831 476.99 204.001 476.162 202.976 476.162H199.884C198.86 476.162 198.029 476.99 198.029 478.013C198.029 479.035 198.86 479.864 199.884 479.864H202.976C204.001 479.864 204.831 479.035 204.831 478.013Z" fill="white"/>
</g>
<mask id="mask9_2_1398" style="mask-type:luminance" maskUnits="userSpaceOnUse" x="164" y="425" width="71" height="71">
<ellipse cx="199.412" cy="460.432" rx="34.7826" ry="34.7058" fill="white"/>
</mask>
<g mask="url(#mask9_2_1398)">
<path fill-rule="evenodd" clip-rule="evenodd" d="M216.734 494.676C217.758 494.676 218.589 495.504 218.589 496.527C218.589 497.549 217.758 498.378 216.734 498.378H216.116C215.091 498.378 214.26 499.206 214.26 500.229C214.26 501.251 215.091 502.08 216.116 502.08H227.864C228.889 502.08 229.719 501.251 229.719 500.229C229.719 499.206 228.889 498.378 227.864 498.378H227.401L227.4 498.376C226.412 498.336 225.623 497.523 225.623 496.527C225.623 495.53 226.412 494.718 227.4 494.677L227.401 494.676H231.42C232.444 494.676 233.275 493.847 233.275 492.825C233.275 491.802 232.444 490.974 231.42 490.974H229.256L229.256 490.972C228.267 490.932 227.478 490.119 227.478 489.123C227.478 488.126 228.267 487.314 229.256 487.273L229.256 487.272H236.521C237.546 487.272 238.376 486.443 238.376 485.421C238.376 484.399 237.546 483.57 236.521 483.57H218.28C217.255 483.57 216.425 484.399 216.425 485.421C216.425 486.443 217.255 487.272 218.28 487.272H221.835C222.86 487.272 223.69 488.101 223.69 489.123C223.69 490.145 222.86 490.974 221.835 490.974H206.222C205.197 490.974 204.367 491.802 204.367 492.825C204.367 493.847 205.197 494.676 206.222 494.676H216.734ZM243.793 492.822C243.793 491.8 242.963 490.971 241.938 490.971H238.846C237.822 490.971 236.991 491.8 236.991 492.822C236.991 493.845 237.822 494.673 238.846 494.673H241.938C242.963 494.673 243.793 493.845 243.793 492.822Z" fill="white"/>
</g>
<ellipse cx="292.166" cy="664.045" rx="18.5507" ry="18.5097" fill="#FF6A45"/>
<mask id="mask10_2_1398" style="mask-type:luminance" maskUnits="userSpaceOnUse" x="273" y="645" width="38" height="38">
<ellipse cx="292.166" cy="664.045" rx="18.5507" ry="18.5097" fill="white"/>
</mask>
<g mask="url(#mask10_2_1398)">
<path fill-rule="evenodd" clip-rule="evenodd" d="M283.566 648.179C284.298 648.179 284.891 648.771 284.891 649.501C284.891 650.232 284.298 650.824 283.566 650.824H278.155C277.423 650.824 276.83 651.416 276.83 652.146C276.83 652.876 277.423 653.468 278.155 653.468H292.179C292.91 653.468 293.504 652.876 293.504 652.146C293.504 651.416 292.91 650.824 292.179 650.824H290.743L290.743 650.822C290.037 650.793 289.473 650.213 289.473 649.501C289.473 648.79 290.037 648.209 290.743 648.18L290.743 648.179H296.927C297.659 648.179 298.252 647.587 298.252 646.857C298.252 646.127 297.659 645.535 296.927 645.535H279.701C278.969 645.535 278.376 646.127 278.376 646.857C278.376 647.587 278.969 648.179 279.701 648.179H283.566ZM305.202 652.137C305.202 651.406 304.608 650.814 303.877 650.814H303.325C302.593 650.814 301.999 651.406 301.999 652.137C301.999 652.867 302.593 653.459 303.325 653.459H303.877C304.608 653.459 305.202 652.867 305.202 652.137Z" fill="#FF9B6B"/>
</g>
<mask id="mask11_2_1398" style="mask-type:luminance" maskUnits="userSpaceOnUse" x="273" y="645" width="38" height="38">
<ellipse cx="292.166" cy="664.045" rx="18.5507" ry="18.5097" fill="white"/>
</mask>
<g mask="url(#mask11_2_1398)">
<path fill-rule="evenodd" clip-rule="evenodd" d="M295.377 679.906C296.109 679.906 296.702 680.498 296.702 681.229C296.702 681.959 296.109 682.551 295.377 682.551H289.966C289.234 682.551 288.641 683.143 288.641 683.873C288.641 684.603 289.234 685.195 289.966 685.195H303.99C304.721 685.195 305.315 684.603 305.315 683.873C305.315 683.143 304.721 682.551 303.99 682.551H302.554L302.554 682.55C301.848 682.521 301.284 681.94 301.284 681.229C301.284 680.517 301.848 679.936 302.554 679.908L302.554 679.906H308.738C309.47 679.906 310.063 679.314 310.063 678.584C310.063 677.854 309.47 677.262 308.738 677.262H291.512C290.78 677.262 290.187 677.854 290.187 678.584C290.187 679.314 290.78 679.906 291.512 679.906H295.377ZM317.013 683.864C317.013 683.134 316.419 682.542 315.688 682.542H315.135C314.404 682.542 313.81 683.134 313.81 683.864C313.81 684.594 314.404 685.186 315.135 685.186H315.688C316.419 685.186 317.013 684.594 317.013 683.864Z" fill="#FF9B6B"/>
</g>
<mask id="mask12_2_1398" style="mask-type:luminance" maskUnits="userSpaceOnUse" x="273" y="645" width="38" height="38">
<ellipse cx="292.166" cy="664.045" rx="18.5507" ry="18.5097" fill="white"/>
</mask>
<g mask="url(#mask12_2_1398)">
<path fill-rule="evenodd" clip-rule="evenodd" d="M288.971 653.463C289.703 653.463 290.296 654.055 290.296 654.785C290.296 655.515 289.703 656.107 288.971 656.107H284.554C283.822 656.107 283.229 655.515 283.229 654.785C283.229 654.055 283.822 653.463 284.554 653.463H288.971ZM302.662 664.038C303.393 664.038 303.987 664.63 303.987 665.36C303.987 666.091 303.393 666.682 302.662 666.682H285.988L285.988 666.684C285.282 666.713 284.718 667.293 284.718 668.005C284.718 668.716 285.282 669.297 285.988 669.326L285.988 669.327H288.086C288.818 669.327 289.411 669.919 289.411 670.649C289.411 671.379 288.818 671.971 288.086 671.971H274.836C274.104 671.971 273.511 671.379 273.511 670.649C273.511 669.919 274.104 669.327 274.836 669.327H278.369C279.101 669.327 279.694 668.735 279.694 668.005C279.694 667.274 279.101 666.682 278.369 666.682H271.302C270.57 666.682 269.977 666.091 269.977 665.36C269.977 664.63 270.57 664.038 271.302 664.038H302.662ZM285.996 675.936C285.996 675.206 285.403 674.614 284.671 674.614H282.463C281.731 674.614 281.137 675.206 281.137 675.936C281.137 676.666 281.731 677.258 282.463 677.258H284.671C285.403 677.258 285.996 676.666 285.996 675.936ZM298.911 675.936C298.911 675.206 298.318 674.614 297.586 674.614H290.74C290.008 674.614 289.415 675.206 289.415 675.936C289.415 676.666 290.008 677.258 290.74 677.258H297.586C298.318 677.258 298.911 676.666 298.911 675.936ZM298.246 670.656C298.246 669.925 297.653 669.334 296.921 669.334H294.713C293.981 669.334 293.387 669.925 293.387 670.656C293.387 671.386 293.981 671.978 294.713 671.978H296.921C297.653 671.978 298.246 671.386 298.246 670.656ZM313.372 654.785C313.372 654.055 312.779 653.463 312.047 653.463H307.63C306.898 653.463 306.305 654.055 306.305 654.785C306.305 655.515 306.898 656.107 307.63 656.107H312.047C312.779 656.107 313.372 655.515 313.372 654.785Z" fill="#D04237"/>
</g>
<ellipse cx="621.447" cy="270.712" rx="46.3768" ry="46.2743" fill="#ECAD7A"/>
<mask id="mask13_2_1398" style="mask-type:luminance" maskUnits="userSpaceOnUse" x="575" y="224" width="93" height="93">
<ellipse cx="621.447" cy="270.712" rx="46.3768" ry="46.2743" fill="white"/>
</mask>
<g mask="url(#mask13_2_1398)">
<path fill-rule="evenodd" clip-rule="evenodd" d="M616.187 271.179C617.243 271.179 618.1 272.033 618.1 273.087C618.1 274.141 617.243 274.995 616.187 274.995H603.756L603.756 274.997C602.737 275.038 601.924 275.876 601.924 276.903C601.924 277.931 602.737 278.768 603.756 278.81L603.756 278.812H629.256C630.312 278.812 631.168 279.666 631.168 280.72C631.168 281.774 630.312 282.628 629.256 282.628H588.297C587.241 282.628 586.385 281.774 586.385 280.72C586.385 279.666 587.241 278.812 588.297 278.812H596.107C597.163 278.812 598.019 277.957 598.019 276.903C598.019 275.849 597.163 274.995 596.107 274.995H591.325C590.269 274.995 589.413 274.141 589.413 273.087C589.413 272.033 590.269 271.179 591.325 271.179H616.187ZM583.517 286.442C584.573 286.442 585.429 287.297 585.429 288.35C585.429 289.404 584.573 290.259 583.517 290.259H571.883C570.827 290.259 569.97 289.404 569.97 288.35C569.97 287.297 570.827 286.442 571.883 286.442H583.517ZM629.255 286.442C630.312 286.442 631.168 287.297 631.168 288.35C631.168 289.404 630.312 290.259 629.255 290.259H617.621C616.565 290.259 615.709 289.404 615.709 288.35C615.709 287.297 616.565 286.442 617.621 286.442H629.255ZM671.33 288.35C671.33 287.297 670.474 286.442 669.418 286.442H642.962C641.906 286.442 641.05 287.297 641.05 288.35C641.05 289.404 641.906 290.259 642.962 290.259H669.418C670.474 290.259 671.33 289.404 671.33 288.35ZM641.054 274.995C642.11 274.995 642.966 275.849 642.966 276.903C642.966 277.957 642.11 278.812 641.054 278.812H639.619C638.563 278.812 637.707 279.666 637.707 280.72C637.707 281.774 638.563 282.628 639.619 282.628H680.578C681.634 282.628 682.49 281.774 682.49 280.72C682.49 279.666 681.634 278.812 680.578 278.812H648.704L648.704 278.81C647.684 278.768 646.871 277.931 646.871 276.903C646.871 275.876 647.684 275.038 648.704 274.997L648.704 274.995H652.528C653.585 274.995 654.441 274.141 654.441 273.087C654.441 272.033 653.585 271.179 652.528 271.179H627.667C626.61 271.179 625.754 272.033 625.754 273.087C625.754 274.141 626.61 274.995 627.667 274.995H641.054ZM581.125 271.179C582.182 271.179 583.038 272.033 583.038 273.087C583.038 274.141 582.182 274.995 581.125 274.995H556.264C555.207 274.995 554.351 274.141 554.351 273.087C554.351 272.033 555.207 271.179 556.264 271.179H581.125ZM688.541 273.087C688.541 272.033 687.685 271.179 686.628 271.179H661.767C660.71 271.179 659.854 272.033 659.854 273.087C659.854 274.141 660.71 274.995 661.767 274.995H686.628C687.685 274.995 688.541 274.141 688.541 273.087Z" fill="#F0D29F"/>
</g>
<mask id="mask14_2_1398" style="mask-type:luminance" maskUnits="userSpaceOnUse" x="575" y="224" width="93" height="93">
<ellipse cx="621.447" cy="270.712" rx="46.3768" ry="46.2743" fill="white"/>
</mask>
<g mask="url(#mask14_2_1398)">
<path d="M600.405 288.363C600.405 287.309 599.548 286.455 598.492 286.455H593.87C592.814 286.455 591.958 285.601 591.958 284.547C591.958 283.493 592.814 282.639 593.87 282.639H609.967C611.023 282.639 611.879 283.493 611.879 284.547C611.879 285.601 611.023 286.455 609.967 286.455H609.489L609.489 286.457C608.469 286.498 607.656 287.336 607.656 288.363C607.656 289.39 608.469 290.228 609.489 290.27L609.489 290.271H609.967C611.023 290.271 611.879 291.126 611.879 292.18C611.879 293.234 611.023 294.088 609.967 294.088H597.855C596.799 294.088 595.942 293.234 595.942 292.18C595.942 291.126 596.799 290.271 597.855 290.271H598.492C599.548 290.271 600.405 289.417 600.405 288.363Z" fill="#D86534"/>
</g>
<mask id="mask15_2_1398" style="mask-type:luminance" maskUnits="userSpaceOnUse" x="575" y="224" width="93" height="93">
<ellipse cx="621.447" cy="270.712" rx="46.3768" ry="46.2743" fill="white"/>
</mask>
<g mask="url(#mask15_2_1398)">
<path fill-rule="evenodd" clip-rule="evenodd" d="M649.341 233.025C648.285 233.025 647.429 233.879 647.429 234.933C647.429 235.987 648.285 236.841 649.341 236.841H674.203C675.259 236.841 676.115 235.987 676.115 234.933C676.115 233.879 675.259 233.025 674.203 233.025H649.341ZM614.28 233.025C613.224 233.025 612.368 233.879 612.368 234.933C612.368 235.987 613.224 236.842 614.28 236.842H626.711L626.711 236.843C627.73 236.885 628.544 237.723 628.544 238.75C628.544 239.777 627.73 240.615 626.711 240.656L626.711 240.658H601.212C600.155 240.658 599.299 241.512 599.299 242.566C599.299 243.62 600.155 244.474 601.212 244.474H642.17C643.226 244.474 644.082 243.62 644.082 242.566C644.082 241.512 643.226 240.658 642.17 240.658H634.361C633.304 240.658 632.448 239.804 632.448 238.75C632.448 237.696 633.304 236.842 634.361 236.842H639.142C640.198 236.842 641.054 235.987 641.054 234.933C641.054 233.879 640.198 233.025 639.142 233.025H614.28ZM646.95 248.289C645.894 248.289 645.038 249.144 645.038 250.197C645.038 251.251 645.894 252.106 646.95 252.106H658.584C659.641 252.106 660.497 251.251 660.497 250.197C660.497 249.144 659.641 248.289 658.584 248.289H646.95ZM601.213 248.289C600.157 248.289 599.3 249.144 599.3 250.197C599.3 251.251 600.157 252.106 601.213 252.106H612.847C613.903 252.106 614.759 251.251 614.759 250.197C614.759 249.144 613.903 248.289 612.847 248.289H601.213ZM559.137 250.197C559.137 249.144 559.994 248.289 561.05 248.289H587.505C588.561 248.289 589.418 249.144 589.418 250.197C589.418 251.251 588.561 252.106 587.505 252.106H561.05C559.994 252.106 559.137 251.251 559.137 250.197ZM589.415 236.842C588.359 236.842 587.503 237.696 587.503 238.75C587.503 239.804 588.359 240.658 589.415 240.658H590.849C591.906 240.658 592.762 241.512 592.762 242.566C592.762 243.62 591.906 244.474 590.849 244.474H549.891C548.835 244.474 547.979 243.62 547.979 242.566C547.979 241.512 548.835 240.658 549.891 240.658H581.765L581.765 240.656C582.784 240.615 583.598 239.777 583.598 238.75C583.598 237.723 582.784 236.885 581.765 236.843L581.765 236.842H577.94C576.884 236.842 576.028 235.987 576.028 234.933C576.028 233.879 576.884 233.025 577.94 233.025H602.802C603.858 233.025 604.715 233.879 604.715 234.933C604.715 235.987 603.858 236.842 602.802 236.842H589.415ZM541.928 234.933C541.928 233.879 542.784 233.025 543.84 233.025H568.702C569.758 233.025 570.615 233.879 570.615 234.933C570.615 235.987 569.758 236.842 568.702 236.842H543.84C542.784 236.842 541.928 235.987 541.928 234.933Z" fill="#DC8E61"/>
</g>
<mask id="mask16_2_1398" style="mask-type:luminance" maskUnits="userSpaceOnUse" x="575" y="224" width="93" height="93">
<ellipse cx="621.447" cy="270.712" rx="46.3768" ry="46.2743" fill="white"/>
</mask>
<g mask="url(#mask16_2_1398)">
<path fill-rule="evenodd" clip-rule="evenodd" d="M639.453 294.082C638.397 294.082 637.54 294.937 637.54 295.991C637.54 297.044 638.397 297.899 639.453 297.899H651.884L651.884 297.9C652.903 297.942 653.717 298.78 653.717 299.807C653.717 300.834 652.903 301.672 651.884 301.714L651.884 301.715H626.384C625.328 301.715 624.472 302.57 624.472 303.623C624.472 304.677 625.328 305.532 626.384 305.532H667.343C668.399 305.532 669.255 304.677 669.255 303.623C669.255 302.57 668.399 301.715 667.343 301.715H659.534C658.477 301.715 657.621 300.861 657.621 299.807C657.621 298.753 658.477 297.899 659.534 297.899H664.315C665.371 297.899 666.227 297.044 666.227 295.991C666.227 294.937 665.371 294.082 664.315 294.082H639.453ZM672.124 309.347C671.068 309.347 670.211 310.201 670.211 311.255C670.211 312.309 671.068 313.163 672.124 313.163H683.758C684.814 313.163 685.67 312.309 685.67 311.255C685.67 310.201 684.814 309.347 683.758 309.347H672.124ZM626.386 309.347C625.33 309.347 624.473 310.201 624.473 311.255C624.473 312.309 625.33 313.163 626.386 313.163H638.02C639.076 313.163 639.932 312.309 639.932 311.255C639.932 310.201 639.076 309.347 638.02 309.347H626.386ZM584.309 311.255C584.309 310.201 585.165 309.347 586.222 309.347H612.677C613.733 309.347 614.59 310.201 614.59 311.255C614.59 312.309 613.733 313.163 612.677 313.163H586.222C585.165 313.163 584.309 312.309 584.309 311.255ZM614.605 297.899C613.548 297.899 612.692 298.753 612.692 299.807C612.692 300.861 613.548 301.715 614.605 301.715H616.039C617.095 301.715 617.951 302.57 617.951 303.623C617.951 304.677 617.095 305.532 616.039 305.532H575.081C574.025 305.532 573.168 304.677 573.168 303.623C573.168 302.57 574.025 301.715 575.081 301.715H606.955L606.955 301.714C607.974 301.672 608.788 300.834 608.788 299.807C608.788 298.78 607.974 297.942 606.955 297.9L606.955 297.899H603.13C602.074 297.899 601.217 297.044 601.217 295.991C601.217 294.937 602.074 294.082 603.13 294.082H627.992C629.048 294.082 629.904 294.937 629.904 295.991C629.904 297.044 629.048 297.899 627.992 297.899H614.605ZM674.515 294.083C673.459 294.083 672.602 294.937 672.602 295.991C672.602 297.045 673.459 297.899 674.515 297.899H699.377C700.433 297.899 701.289 297.045 701.289 295.991C701.289 294.937 700.433 294.083 699.377 294.083H674.515ZM567.101 295.991C567.101 294.937 567.957 294.082 569.013 294.082H593.875C594.931 294.082 595.787 294.937 595.787 295.991C595.787 297.044 594.931 297.899 593.875 297.899H569.013C567.957 297.899 567.101 297.044 567.101 295.991Z" fill="#D89D6D"/>
</g>
<mask id="mask17_2_1398" style="mask-type:luminance" maskUnits="userSpaceOnUse" x="575" y="224" width="93" height="93">
<ellipse cx="621.447" cy="270.712" rx="46.3768" ry="46.2743" fill="white"/>
</mask>
<g mask="url(#mask17_2_1398)">
<path fill-rule="evenodd" clip-rule="evenodd" d="M603.281 259.729C604.338 259.729 605.194 260.583 605.194 261.637C605.194 262.691 604.338 263.545 603.281 263.545H601.688C600.632 263.545 599.775 264.4 599.775 265.454C599.775 266.508 600.632 267.362 601.688 267.362H615.872C616.928 267.362 617.784 266.508 617.784 265.454C617.784 264.4 616.928 263.545 615.872 263.545H614.278L614.278 263.544C613.259 263.502 612.445 262.664 612.445 261.637C612.445 260.61 613.259 259.772 614.278 259.731L614.278 259.729H624.637C625.693 259.729 626.55 258.875 626.55 257.821C626.55 256.767 625.693 255.913 624.637 255.913H592.922C591.866 255.913 591.01 256.767 591.01 257.821C591.01 258.875 591.866 259.729 592.922 259.729H603.281ZM595.959 265.461C595.959 264.407 595.102 263.553 594.046 263.553H584.165C583.109 263.553 582.253 264.407 582.253 265.461C582.253 266.515 583.109 267.369 584.165 267.369H594.046C595.102 267.369 595.959 266.515 595.959 265.461ZM576.515 263.553C577.571 263.553 578.427 264.407 578.427 265.461C578.427 266.515 577.571 267.369 576.515 267.369H572.053C570.996 267.369 570.14 266.515 570.14 265.461C570.14 264.407 570.996 263.553 572.053 263.553H576.515ZM652.203 265.461C652.203 264.407 651.347 263.553 650.29 263.553H623.516C622.46 263.553 621.604 264.407 621.604 265.461C621.604 266.515 622.46 267.369 623.516 267.369H650.29C651.347 267.369 652.203 266.515 652.203 265.461ZM662.4 263.553C663.456 263.553 664.312 264.407 664.312 265.461C664.312 266.515 663.456 267.369 662.4 267.369H657.937C656.881 267.369 656.025 266.515 656.025 265.461C656.025 264.407 656.881 263.553 657.937 263.553H662.4ZM656.834 257.821C656.834 256.767 655.978 255.913 654.922 255.913H632.291C631.235 255.913 630.379 256.767 630.379 257.821C630.379 258.875 631.235 259.729 632.291 259.729H654.922C655.978 259.729 656.834 258.875 656.834 257.821ZM670.532 255.913C671.588 255.913 672.444 256.767 672.444 257.821C672.444 258.875 671.588 259.729 670.532 259.729H662.564C661.507 259.729 660.651 258.875 660.651 257.821C660.651 256.767 661.507 255.913 662.564 255.913H670.532ZM583.357 257.821C583.357 256.767 582.501 255.913 581.445 255.913H576.982C575.926 255.913 575.07 256.767 575.07 257.821C575.07 258.875 575.926 259.729 576.982 259.729H581.445C582.501 259.729 583.357 258.875 583.357 257.821Z" fill="#D89D6D"/>
</g>
<path fill-rule="evenodd" clip-rule="evenodd" d="M674.056 588.527C707.817 570.77 737.856 561.431 741.151 567.668C741.165 567.694 741.178 567.72 741.19 567.746L731.275 572.96L731.238 572.882C728.478 567.657 703.309 575.481 675.023 590.359C646.737 605.236 626.044 621.533 628.805 626.758C628.818 626.784 628.832 626.809 628.847 626.834L618.935 632.047L618.892 631.972C615.597 625.735 640.294 606.284 674.056 588.527ZM675.236 590.926C702.152 576.769 726.1 569.325 728.728 574.297L724.993 576.262L724.956 576.183C722.529 571.59 700.448 578.446 675.636 591.496C650.824 604.546 632.677 618.849 635.103 623.442C635.117 623.468 635.131 623.493 635.146 623.518L631.259 625.562C628.631 620.589 648.321 605.082 675.236 590.926Z" fill="#B87D43"/>
<ellipse cx="36.132" cy="36.198" rx="36.132" ry="36.198" transform="matrix(0.296391 -0.955067 0.955436 0.295197 632.108 622.908)" fill="#FCCB6B"/>
<mask id="mask18_2_1398" style="mask-type:luminance" maskUnits="userSpaceOnUse" x="641" y="562" width="73" height="74">
<ellipse cx="36.132" cy="36.198" rx="36.132" ry="36.198" transform="matrix(0.296391 -0.955067 0.955436 0.295197 632.108 622.908)" fill="white"/>
</mask>
<g mask="url(#mask18_2_1398)">
<path fill-rule="evenodd" clip-rule="evenodd" d="M665.411 609.275C664.39 609.812 663.999 611.073 664.537 612.091C665.075 613.109 666.338 613.499 667.359 612.963L668.744 612.234C669.765 611.697 671.028 612.087 671.566 613.106C672.104 614.124 671.713 615.384 670.692 615.921L631.12 636.735C630.099 637.272 628.836 636.881 628.298 635.863C627.76 634.845 628.151 633.584 629.172 633.047L659.968 616.85L659.967 616.848C660.93 616.29 661.289 615.068 660.764 614.075C660.24 613.082 659.026 612.687 658.02 613.164L658.02 613.163L654.324 615.106C653.304 615.643 652.04 615.253 651.502 614.235C650.964 613.216 651.356 611.956 652.376 611.419L676.397 598.785C677.417 598.248 678.681 598.639 679.219 599.657C679.757 600.675 679.365 601.936 678.345 602.472L665.411 609.275ZM687.489 592.958C686.468 593.495 686.077 594.756 686.615 595.774C687.153 596.792 688.416 597.182 689.437 596.646L701.447 590.329L701.448 590.33C702.454 589.853 703.667 590.248 704.192 591.241C704.716 592.233 704.358 593.456 703.394 594.014L703.395 594.016L678.758 606.974C677.738 607.511 677.347 608.771 677.884 609.789C678.422 610.808 679.686 611.198 680.706 610.661L720.279 589.848C721.299 589.311 721.691 588.05 721.153 587.032C720.615 586.014 719.351 585.623 718.331 586.16L710.786 590.129C709.765 590.665 708.502 590.275 707.964 589.257C707.426 588.239 707.817 586.978 708.838 586.441L713.457 584.012C714.478 583.475 714.869 582.214 714.331 581.196C713.793 580.178 712.53 579.788 711.509 580.324L687.489 592.958ZM726.847 591.101C725.826 591.638 725.435 592.899 725.973 593.917C726.511 594.935 727.774 595.325 728.795 594.789L740.035 588.876C741.056 588.34 741.447 587.079 740.909 586.061C740.371 585.043 739.108 584.652 738.087 585.189L726.847 591.101ZM682.651 614.351C681.63 614.887 681.239 616.148 681.777 617.166C682.315 618.184 683.578 618.575 684.599 618.038L695.839 612.126C696.86 611.589 697.251 610.329 696.713 609.31C696.175 608.292 694.912 607.902 693.891 608.439L682.651 614.351ZM642.98 637.574C642.442 636.556 642.833 635.295 643.854 634.759L669.414 621.315C670.435 620.778 671.698 621.168 672.236 622.186C672.774 623.205 672.383 624.465 671.362 625.002L645.802 638.446C644.781 638.983 643.518 638.592 642.98 637.574ZM721.361 575.138C720.341 575.674 719.95 576.935 720.488 577.953C721.026 578.971 722.289 579.362 723.309 578.825L747.33 566.191C748.351 565.654 748.742 564.394 748.204 563.376C747.666 562.357 746.403 561.967 745.382 562.504L721.361 575.138ZM618.553 631.569C618.015 630.551 618.407 629.29 619.427 628.753L643.448 616.119C644.468 615.583 645.732 615.973 646.27 616.991C646.808 618.009 646.416 619.27 645.396 619.807L621.375 632.441C620.355 632.977 619.091 632.587 618.553 631.569Z" fill="#ECB55A"/>
</g>
<path fill-rule="evenodd" clip-rule="evenodd" d="M684.751 608.934C711.666 594.777 731.356 579.27 728.729 574.297L724.994 576.262L725.038 576.336C727.464 580.93 709.317 595.233 684.505 608.283C659.693 621.333 637.612 628.189 635.185 623.595C635.172 623.57 635.159 623.544 635.147 623.518L631.26 625.562C633.887 630.535 657.835 623.09 684.751 608.934ZM686.072 611.266C719.833 593.509 744.531 574.058 741.236 567.821C741.222 567.796 741.208 567.77 741.194 567.745L731.279 572.96L731.323 573.035C734.083 578.261 713.391 594.557 685.104 609.435C656.818 624.312 631.649 632.137 628.889 626.911C628.875 626.886 628.862 626.86 628.85 626.834L618.939 632.047L618.976 632.125C622.271 638.362 652.311 629.023 686.072 611.266Z" fill="#B87D43"/>
<ellipse cx="403.475" cy="46.2744" rx="46.3768" ry="46.2743" fill="#65F0D5"/>
<mask id="mask19_2_1398" style="mask-type:luminance" maskUnits="userSpaceOnUse" x="357" y="0" width="93" height="93">
<ellipse cx="403.475" cy="46.2744" rx="46.3768" ry="46.2743" fill="white"/>
</mask>
<g mask="url(#mask19_2_1398)">
<path fill-rule="evenodd" clip-rule="evenodd" d="M447.247 -30.3107C447.247 -28.9715 446.159 -27.8859 444.817 -27.8859C443.475 -27.8859 442.387 -28.9715 442.387 -30.3107V-61.8339C442.387 -63.1731 443.475 -64.2588 444.817 -64.2588C446.159 -64.2588 447.247 -63.1731 447.247 -61.8339V-30.3107ZM447.247 14.1455C447.247 15.4847 446.159 16.5704 444.817 16.5704C443.474 16.5704 442.386 15.4847 442.386 14.1455V-1.61609L442.384 -1.61601C442.331 -2.90841 441.264 -3.93991 439.956 -3.93991C438.648 -3.93991 437.581 -2.90841 437.528 -1.61601L437.526 -1.61609V30.7154C437.526 32.0546 436.438 33.1402 435.096 33.1402C433.754 33.1402 432.666 32.0546 432.666 30.7154V-21.217C432.666 -22.5562 433.754 -23.6419 435.096 -23.6419C436.438 -23.6419 437.526 -22.5562 437.526 -21.217V-11.3155C437.526 -9.97631 438.614 -8.89067 439.956 -8.89067C441.298 -8.89067 442.386 -9.97631 442.386 -11.3155V-17.3777C442.386 -18.7169 443.474 -19.8025 444.817 -19.8025C446.159 -19.8025 447.247 -18.7169 447.247 -17.3777V14.1455ZM427.802 -27.2822C427.802 -25.943 426.714 -24.8574 425.371 -24.8574C424.029 -24.8574 422.941 -25.943 422.941 -27.2822V-42.0334C422.941 -43.3727 424.029 -44.4583 425.371 -44.4583C426.714 -44.4583 427.802 -43.3727 427.802 -42.0334V-27.2822ZM427.802 30.7126C427.802 32.0518 426.714 33.1374 425.371 33.1374C424.029 33.1374 422.941 32.0518 422.941 30.7126V15.9613C422.941 14.6221 424.029 13.5365 425.371 13.5365C426.714 13.5365 427.802 14.6221 427.802 15.9613V30.7126ZM425.371 84.0629C426.714 84.0629 427.802 82.9772 427.802 81.638V48.0942C427.802 46.755 426.714 45.6693 425.371 45.6693C424.029 45.6693 422.941 46.755 422.941 48.0942V81.638C422.941 82.9772 424.029 84.0629 425.371 84.0629ZM442.386 45.664C442.386 47.0032 441.298 48.0889 439.956 48.0889C438.614 48.0889 437.526 47.0032 437.526 45.664V43.8454C437.526 42.5061 436.438 41.4205 435.096 41.4205C433.754 41.4205 432.666 42.5061 432.666 43.8454V95.7777C432.666 97.117 433.754 98.2026 435.096 98.2026C436.438 98.2026 437.526 97.117 437.526 95.7777V55.3634L437.528 55.3635C437.581 54.0711 438.648 53.0396 439.956 53.0396C441.264 53.0396 442.331 54.0711 442.384 55.3635L442.386 55.3634V60.2132C442.386 61.5524 443.474 62.638 444.817 62.638C446.159 62.638 447.247 61.5524 447.247 60.2132V28.69C447.247 27.3508 446.159 26.2651 444.817 26.2651C443.474 26.2651 442.386 27.3508 442.386 28.69V45.664ZM444.817 105.887C446.159 105.887 447.247 104.801 447.247 103.462V71.939C447.247 70.5997 446.159 69.5141 444.817 69.5141C443.474 69.5141 442.386 70.5997 442.386 71.939V103.462C442.386 104.801 443.474 105.887 444.817 105.887Z" fill="#49CBC2"/>
</g>
<mask id="mask20_2_1398" style="mask-type:luminance" maskUnits="userSpaceOnUse" x="357" y="0" width="93" height="93">
<ellipse cx="403.475" cy="46.2744" rx="46.3768" ry="46.2743" fill="white"/>
</mask>
<g mask="url(#mask20_2_1398)">
<path fill-rule="evenodd" clip-rule="evenodd" d="M393.781 0.00401306C393.781 1.34322 394.869 2.42887 396.211 2.42887C397.553 2.42887 398.641 1.34322 398.641 0.00401306V-15.7576L398.643 -15.7575C398.696 -17.0499 399.763 -18.0814 401.071 -18.0814C402.38 -18.0814 403.447 -17.0499 403.5 -15.7575L403.502 -15.7576V16.5739C403.502 17.9131 404.59 18.9987 405.932 18.9987C407.274 18.9987 408.362 17.9131 408.362 16.5739V-35.3585C408.362 -36.6977 407.274 -37.7834 405.932 -37.7834C404.59 -37.7834 403.502 -36.6977 403.502 -35.3585V-25.457C403.502 -24.1178 402.414 -23.0322 401.071 -23.0322C399.729 -23.0322 398.641 -24.1178 398.641 -25.457V-31.5192C398.641 -32.8584 397.553 -33.944 396.211 -33.944C394.869 -33.944 393.781 -32.8584 393.781 -31.5192V0.00401306ZM413.226 -41.4237C413.226 -40.0845 414.314 -38.9988 415.656 -38.9988C416.998 -38.9988 418.087 -40.0845 418.087 -41.4237V-56.1749C418.087 -57.5141 416.998 -58.5998 415.656 -58.5998C414.314 -58.5998 413.226 -57.5141 413.226 -56.1749V-41.4237ZM413.226 16.5706C413.226 17.9098 414.314 18.9954 415.656 18.9954C416.998 18.9954 418.087 17.9098 418.087 16.5706V1.81934C418.087 0.480133 416.998 -0.605515 415.656 -0.605515C414.314 -0.605515 413.226 0.480133 413.226 1.81934V16.5706ZM415.656 69.9144C414.314 69.9144 413.226 68.8287 413.226 67.4895V33.9456C413.226 32.6064 414.314 31.5208 415.656 31.5208C416.998 31.5208 418.087 32.6064 418.087 33.9456V67.4895C418.087 68.8287 416.998 69.9144 415.656 69.9144ZM398.641 31.5228C398.641 32.862 399.729 33.9476 401.071 33.9476C402.414 33.9476 403.502 32.862 403.502 31.5228V29.7041C403.502 28.3649 404.59 27.2793 405.932 27.2793C407.274 27.2793 408.362 28.3649 408.362 29.7041V81.6365C408.362 82.9757 407.274 84.0614 405.932 84.0614C404.59 84.0614 403.502 82.9757 403.502 81.6365V41.2222L403.5 41.2223C403.447 39.9299 402.38 38.8984 401.071 38.8984C399.763 38.8984 398.696 39.9299 398.643 41.2223L398.641 41.2222V46.0719C398.641 47.4111 397.553 48.4968 396.211 48.4968C394.869 48.4968 393.781 47.4111 393.781 46.0719V14.5488C393.781 13.2096 394.869 12.1239 396.211 12.1239C397.553 12.1239 398.641 13.2096 398.641 14.5488V31.5228ZM393.781 -44.4524C393.781 -43.1132 394.869 -42.0275 396.211 -42.0275C397.553 -42.0275 398.641 -43.1132 398.641 -44.4524V-75.9756C398.641 -77.3148 397.553 -78.4004 396.211 -78.4004C394.869 -78.4004 393.781 -77.3148 393.781 -75.9756V-44.4524ZM396.211 91.7452C394.869 91.7452 393.781 90.6596 393.781 89.3204V57.7972C393.781 56.458 394.869 55.3723 396.211 55.3723C397.553 55.3723 398.641 56.458 398.641 57.7972V89.3204C398.641 90.6596 397.553 91.7452 396.211 91.7452Z" fill="#50DECD"/>
</g>
<mask id="mask21_2_1398" style="mask-type:luminance" maskUnits="userSpaceOnUse" x="357" y="0" width="93" height="93">
<ellipse cx="403.475" cy="46.2744" rx="46.3768" ry="46.2743" fill="white"/>
</mask>
<g mask="url(#mask21_2_1398)">
<path fill-rule="evenodd" clip-rule="evenodd" d="M388.928 -51.1274C388.928 -49.7882 387.84 -48.7026 386.498 -48.7026C385.155 -48.7026 384.067 -49.7882 384.067 -51.1274V-82.6506C384.067 -83.9898 385.155 -85.0754 386.498 -85.0754C387.84 -85.0754 388.928 -83.9898 388.928 -82.6506V-51.1274ZM388.928 -6.67094C388.928 -5.33173 387.84 -4.24608 386.497 -4.24608C385.155 -4.24608 384.067 -5.33173 384.067 -6.67094V-22.4325L384.065 -22.4325C384.012 -23.7248 382.945 -24.7564 381.637 -24.7564C380.329 -24.7564 379.262 -23.7248 379.209 -22.4325L379.207 -22.4325V9.89893C379.207 11.2381 378.119 12.3238 376.776 12.3238C375.434 12.3238 374.346 11.2381 374.346 9.89893V-42.0335C374.346 -43.3727 375.434 -44.4583 376.776 -44.4583C378.119 -44.4583 379.207 -43.3727 379.207 -42.0335V-32.132C379.207 -30.7928 380.295 -29.7071 381.637 -29.7071C382.979 -29.7071 384.067 -30.7928 384.067 -32.132V-38.1941C384.067 -39.5333 385.155 -40.619 386.497 -40.619C387.84 -40.619 388.928 -39.5333 388.928 -38.1941V-6.67094ZM369.481 -48.0911C369.481 -46.7519 368.393 -45.6662 367.051 -45.6662C365.709 -45.6662 364.621 -46.7519 364.621 -48.0911V-62.8423C364.621 -64.1815 365.709 -65.2672 367.051 -65.2672C368.393 -65.2672 369.481 -64.1815 369.481 -62.8423V-48.0911ZM369.481 9.90421C369.481 11.2434 368.393 12.3291 367.051 12.3291C365.709 12.3291 364.621 11.2434 364.621 9.90421V-4.84702C364.621 -6.18623 365.709 -7.27187 367.051 -7.27187C368.393 -7.27187 369.481 -6.18623 369.481 -4.84702V9.90421ZM367.051 63.2457C368.393 63.2457 369.481 62.16 369.481 60.8208V27.2769C369.481 25.9377 368.393 24.8521 367.051 24.8521C365.709 24.8521 364.621 25.9377 364.621 27.2769V60.8208C364.621 62.16 365.709 63.2457 367.051 63.2457ZM384.067 24.8549C384.067 26.1941 382.979 27.2797 381.637 27.2797C380.295 27.2797 379.207 26.1941 379.207 24.8549V23.0362C379.207 21.697 378.119 20.6114 376.776 20.6114C375.434 20.6114 374.346 21.697 374.346 23.0362V74.9686C374.346 76.3078 375.434 77.3934 376.776 77.3934C378.119 77.3934 379.207 76.3078 379.207 74.9686V34.5543L379.209 34.5544C379.262 33.262 380.329 32.2305 381.637 32.2305C382.945 32.2305 384.012 33.262 384.065 34.5544L384.067 34.5543V39.404C384.067 40.7432 385.155 41.8289 386.497 41.8289C387.84 41.8289 388.928 40.7432 388.928 39.404V7.88084C388.928 6.54163 387.84 5.45599 386.497 5.45599C385.155 5.45599 384.067 6.54163 384.067 7.88084V24.8549ZM386.497 85.069C387.84 85.069 388.928 83.9833 388.928 82.6441V51.121C388.928 49.7817 387.84 48.6961 386.497 48.6961C385.155 48.6961 384.067 49.7817 384.067 51.121V82.6441C384.067 83.9833 385.155 85.069 386.497 85.069Z" fill="#77FFF5"/>
</g>
<ellipse cx="78.832" cy="282.267" rx="23.1884" ry="23.1372" fill="#497EFA"/>
<mask id="mask22_2_1398" style="mask-type:luminance" maskUnits="userSpaceOnUse" x="55" y="259" width="48" height="47">
<ellipse cx="78.832" cy="282.267" rx="23.1884" ry="23.1372" fill="white"/>
</mask>
<g mask="url(#mask22_2_1398)">
<path fill-rule="evenodd" clip-rule="evenodd" d="M57.2144 276.205C57.8974 276.205 58.4511 276.758 58.4511 277.439C58.4511 278.121 57.8974 278.673 57.2144 278.673H41.1371C40.4541 278.673 39.9004 278.121 39.9004 277.439C39.9004 276.758 40.4541 276.205 41.1371 276.205H57.2144ZM79.8862 276.205C80.5692 276.205 81.1229 276.758 81.1229 277.439C81.1229 278.121 80.5692 278.673 79.8862 278.673H71.8476L71.8476 278.674C71.1885 278.701 70.6624 279.243 70.6624 279.907C70.6624 280.571 71.1885 281.113 71.8476 281.14L71.8476 281.141H88.3371C89.0201 281.141 89.5738 281.694 89.5738 282.375C89.5738 283.057 89.0201 283.609 88.3371 283.609H61.8508C61.1678 283.609 60.6141 283.057 60.6141 282.375C60.6141 281.694 61.1678 281.141 61.8508 281.141H66.9007C67.5837 281.141 68.1374 280.589 68.1374 279.907C68.1374 279.226 67.5837 278.673 66.9007 278.673H63.8089C63.1259 278.673 62.5722 278.121 62.5722 277.439C62.5722 276.758 63.1259 276.205 63.8089 276.205H79.8862ZM58.7621 286.072C59.4452 286.072 59.9989 286.625 59.9989 287.306C59.9989 287.988 59.4452 288.54 58.7621 288.54H51.2388C50.5558 288.54 50.0021 287.988 50.0021 287.306C50.0021 286.625 50.5558 286.072 51.2388 286.072H58.7621ZM88.3444 286.072C89.0275 286.072 89.5812 286.625 89.5812 287.306C89.5812 287.988 89.0275 288.54 88.3444 288.54H80.8211C80.1381 288.54 79.5844 287.988 79.5844 287.306C79.5844 286.625 80.1381 286.072 80.8211 286.072H88.3444ZM115.554 287.306C115.554 286.625 115 286.072 114.317 286.072H97.2091C96.5261 286.072 95.9724 286.625 95.9724 287.306C95.9724 287.988 96.5261 288.54 97.2091 288.54H114.317C115 288.54 115.554 287.988 115.554 287.306ZM95.9614 278.673C96.6445 278.673 97.1981 279.226 97.1981 279.907C97.1981 280.589 96.6445 281.141 95.9614 281.141H95.0339C94.3509 281.141 93.7972 281.694 93.7972 282.375C93.7972 283.057 94.3509 283.609 95.0339 283.609H121.52C122.203 283.609 122.757 283.057 122.757 282.375C122.757 281.694 122.203 281.141 121.52 281.141H100.908L100.908 281.14C100.249 281.113 99.7231 280.571 99.7231 279.907C99.7231 279.243 100.249 278.701 100.908 278.674L100.908 278.673H103.382C104.065 278.673 104.618 278.121 104.618 277.439C104.618 276.758 104.065 276.205 103.382 276.205H87.3044C86.6214 276.205 86.0677 276.758 86.0677 277.439C86.0677 278.121 86.6214 278.673 87.3044 278.673H95.9614ZM126.681 277.439C126.681 276.758 126.128 276.205 125.445 276.205H109.367C108.684 276.205 108.131 276.758 108.131 277.439C108.131 278.121 108.684 278.673 109.367 278.673H125.445C126.128 278.673 126.681 278.121 126.681 277.439Z" fill="#356CEE"/>
</g>
<mask id="mask23_2_1398" style="mask-type:luminance" maskUnits="userSpaceOnUse" x="55" y="259" width="48" height="47">
<ellipse cx="78.832" cy="282.267" rx="23.1884" ry="23.1372" fill="white"/>
</mask>
<g mask="url(#mask23_2_1398)">
<path opacity="0.4" fill-rule="evenodd" clip-rule="evenodd" d="M79.8862 261.396C80.5692 261.396 81.1229 261.949 81.1229 262.63C81.1229 263.312 80.5692 263.864 79.8862 263.864H71.8476L71.8476 263.865C71.1885 263.892 70.6624 264.434 70.6624 265.098C70.6624 265.762 71.1885 266.304 71.8476 266.331L71.8476 266.332H88.3371C89.0201 266.332 89.5738 266.885 89.5738 267.566C89.5738 268.248 89.0201 268.8 88.3371 268.8H61.8508C61.1678 268.8 60.6141 268.248 60.6141 267.566C60.6141 266.885 61.1678 266.332 61.8508 266.332H66.9007C67.5837 266.332 68.1374 265.78 68.1374 265.098C68.1374 264.417 67.5837 263.864 66.9007 263.864H63.8089C63.1259 263.864 62.5722 263.312 62.5722 262.63C62.5722 261.949 63.1259 261.396 63.8089 261.396H79.8862ZM58.7621 271.264C59.4452 271.264 59.9989 271.816 59.9989 272.498C59.9989 273.179 59.4452 273.732 58.7621 273.732H51.2388C50.5558 273.732 50.0021 273.179 50.0021 272.498C50.0021 271.816 50.5558 271.264 51.2388 271.264H58.7621ZM88.3444 271.264C89.0275 271.264 89.5812 271.816 89.5812 272.498C89.5812 273.179 89.0275 273.732 88.3444 273.732H80.8211C80.1381 273.732 79.5844 273.179 79.5844 272.498C79.5844 271.816 80.1381 271.264 80.8211 271.264H88.3444ZM115.554 272.498C115.554 271.816 115 271.264 114.317 271.264H97.2091C96.5261 271.264 95.9724 271.816 95.9724 272.498C95.9724 273.179 96.5261 273.732 97.2091 273.732H114.317C115 273.732 115.554 273.179 115.554 272.498ZM95.9614 263.864C96.6445 263.864 97.1981 264.417 97.1981 265.098C97.1981 265.78 96.6445 266.332 95.9614 266.332H95.0339C94.3509 266.332 93.7972 266.885 93.7972 267.566C93.7972 268.248 94.3509 268.8 95.0339 268.8H121.52C122.203 268.8 122.757 268.248 122.757 267.566C122.757 266.885 122.203 266.332 121.52 266.332H100.908L100.908 266.331C100.249 266.304 99.7231 265.762 99.7231 265.098C99.7231 264.434 100.249 263.892 100.908 263.865L100.908 263.864H103.382C104.065 263.864 104.618 263.312 104.618 262.63C104.618 261.949 104.065 261.396 103.382 261.396H87.3044C86.6214 261.396 86.0677 261.949 86.0677 262.63C86.0677 263.312 86.6214 263.864 87.3044 263.864H95.9614ZM57.2144 261.396C57.8974 261.396 58.4511 261.949 58.4511 262.63C58.4511 263.312 57.8974 263.864 57.2144 263.864H41.1371C40.4541 263.864 39.9004 263.312 39.9004 262.63C39.9004 261.949 40.4541 261.396 41.1371 261.396H57.2144ZM126.681 262.63C126.681 261.949 126.128 261.396 125.445 261.396H109.367C108.684 261.396 108.131 261.949 108.131 262.63C108.131 263.312 108.684 263.864 109.367 263.864H125.445C126.128 263.864 126.681 263.312 126.681 262.63Z" fill="#356CEE"/>
</g>
<mask id="mask24_2_1398" style="mask-type:luminance" maskUnits="userSpaceOnUse" x="55" y="259" width="48" height="47">
<ellipse cx="78.832" cy="282.267" rx="23.1884" ry="23.1372" fill="white"/>
</mask>
<g mask="url(#mask24_2_1398)">
<path opacity="0.4" fill-rule="evenodd" clip-rule="evenodd" d="M57.2144 293.477C57.8974 293.477 58.4511 294.029 58.4511 294.711C58.4511 295.392 57.8974 295.945 57.2144 295.945H41.1371C40.4541 295.945 39.9004 295.392 39.9004 294.711C39.9004 294.029 40.4541 293.477 41.1371 293.477H57.2144ZM79.8862 293.477C80.5692 293.477 81.1229 294.029 81.1229 294.711C81.1229 295.392 80.5692 295.945 79.8862 295.945H71.8476L71.8476 295.946C71.1885 295.973 70.6624 296.515 70.6624 297.179C70.6624 297.843 71.1885 298.385 71.8476 298.412L71.8476 298.413H88.3371C89.0201 298.413 89.5738 298.965 89.5738 299.647C89.5738 300.328 89.0201 300.881 88.3371 300.881H61.8508C61.1678 300.881 60.6141 300.328 60.6141 299.647C60.6141 298.965 61.1678 298.413 61.8508 298.413H66.9007C67.5837 298.413 68.1374 297.86 68.1374 297.179C68.1374 296.497 67.5837 295.945 66.9007 295.945H63.8089C63.1259 295.945 62.5722 295.392 62.5722 294.711C62.5722 294.029 63.1259 293.477 63.8089 293.477H79.8862ZM58.7621 303.361C59.4452 303.361 59.9989 303.914 59.9989 304.595C59.9989 305.277 59.4452 305.829 58.7621 305.829H51.2388C50.5558 305.829 50.0021 305.277 50.0021 304.595C50.0021 303.914 50.5558 303.361 51.2388 303.361H58.7621ZM88.3444 303.361C89.0275 303.361 89.5812 303.914 89.5812 304.595C89.5812 305.277 89.0275 305.829 88.3444 305.829H80.8211C80.1381 305.829 79.5844 305.277 79.5844 304.595C79.5844 303.914 80.1381 303.361 80.8211 303.361H88.3444ZM115.554 304.595C115.554 303.914 115 303.361 114.317 303.361H97.2091C96.5261 303.361 95.9724 303.914 95.9724 304.595C95.9724 305.277 96.5261 305.829 97.2091 305.829H114.317C115 305.829 115.554 305.277 115.554 304.595ZM95.9614 295.945C96.6445 295.945 97.1981 296.497 97.1981 297.179C97.1981 297.86 96.6445 298.413 95.9614 298.413H95.0339C94.3509 298.413 93.7972 298.965 93.7972 299.647C93.7972 300.328 94.3509 300.881 95.0339 300.881H121.52C122.203 300.881 122.757 300.328 122.757 299.647C122.757 298.965 122.203 298.413 121.52 298.413H100.908L100.908 298.412C100.249 298.385 99.7231 297.843 99.7231 297.179C99.7231 296.515 100.249 295.973 100.908 295.946L100.908 295.945H103.382C104.065 295.945 104.618 295.392 104.618 294.711C104.618 294.029 104.065 293.477 103.382 293.477H87.3044C86.6214 293.477 86.0677 294.029 86.0677 294.711C86.0677 295.392 86.6214 295.945 87.3044 295.945H95.9614ZM126.681 294.711C126.681 294.029 126.128 293.477 125.445 293.477H109.367C108.684 293.477 108.131 294.029 108.131 294.711C108.131 295.392 108.684 295.945 109.367 295.945H125.445C126.128 295.945 126.681 295.392 126.681 294.711Z" fill="#356CEE"/>
</g>
<mask id="mask25_2_1398" style="mask-type:luminance" maskUnits="userSpaceOnUse" x="55" y="259" width="48" height="47">
<ellipse cx="78.832" cy="282.267" rx="23.1884" ry="23.1372" fill="white"/>
</mask>
<g mask="url(#mask25_2_1398)">
<path d="M70.9189 287.311C70.9189 286.63 70.3652 286.077 69.6821 286.077H67.724C67.041 286.077 66.4873 285.525 66.4873 284.843C66.4873 284.162 67.041 283.609 67.724 283.609H75.8657C76.5487 283.609 77.1024 284.162 77.1024 284.843C77.1024 285.525 76.5487 286.077 75.8657 286.077H75.5565L75.5565 286.078C74.8974 286.105 74.3714 286.647 74.3714 287.311C74.3714 287.975 74.8974 288.517 75.5565 288.544L75.5565 288.545H75.8657C76.5487 288.545 77.1024 289.098 77.1024 289.779C77.1024 290.461 76.5487 291.013 75.8657 291.013H69.5791C68.8961 291.013 68.3424 290.461 68.3424 289.779C68.3424 289.098 68.8961 288.545 69.5791 288.545H69.6821C70.3652 288.545 70.9189 287.993 70.9189 287.311Z" fill="#2255CA"/>
</g>
<defs>
<filter id="filter0_f_2_1398" x="290.547" y="329.382" width="223.729" height="222.754" filterUnits="userSpaceOnUse" color-interpolation-filters="sRGB">
<feFlood flood-opacity="0" result="BackgroundImageFix"/>
<feBlend mode="normal" in="SourceGraphic" in2="BackgroundImageFix" result="shape"/>
<feGaussianBlur stdDeviation="12.5" result="effect1_foregroundBlur_2_1398"/>
</filter>
</defs>
</svg>
